PathFileType	4	(X/Y/Z)	C:/Users/beibeiliu/ov580/test_trc/User3\sequence.25_training_dense_left.trc
DataRate	CameraRate	NumFrames	NumMarkers	Units	OrigDataRate	OrigDataStartFrame	OrigNumFrames
120	120	15	19	mm	120	69	274
Frame#	Time	ThumbCMC			ThumbMCP			ThumbIP			ThumbTip			IndexMCP			IndexPIP			IndexTip			MiddleMCP			MiddlePIP			MiddleTip			RingMCP			RingPIP			RingTip			PinkyMCP			PinkyPIP			PinkyTip			BackHand1			BackHand2			BackHand3	
		X0	Y0	Z0	X1	Y1	Z1	X2	Y2	Z2	X3	Y3	Z3	X4	Y4	Z4	X5	Y5	Z5	X6	Y6	Z6	X7	Y7	Z7	X8	Y8	Z8	X9	Y9	Z9	X10	Y10	Z10	X11	Y11	Z11	X12	Y12	Z12	X13	Y13	Z13	X14	Y14	Z14	X15	Y15	Z15	X16	Y16	Z16	X17	Y17	Z17	X18	Y18	Z18	
68	0.566667	-224.723	12.1334	-8.08421	-210.613	13.4193	-40.2012	-195.906	-2.52083	-60.5038	-178.052	-25.6433	-66.8075	-215.259	-24.9318	-77.8198	-187.584	-11.4726	-87.9576	-191.455	-2.89788	-57.9132	-196.951	-37.3766	-74.3566	-169.004	-22.0756	-77.7559	-170.001	-5.52315	-42.0539	-189.148	-47.5694	-60.2752	-161.527	-31.7285	-59.8747	-169.389	-19.8898	-30.7494	-187.164	-66.5047	-43.0061	-176.773	-66.5104	-65.1139	-163.383	-62.8283	-83.8144	-222.35	-52.5659	-15.0868	-227.26	-49.6789	15.2071	-238.757	-24.1048	-10.823	
69	0.575	-216.027	8.86995	-4.58674	-203.639	7.22616	-38.9261	-190.108	-11.3861	-60.0684	-176.688	-35.719	-60.2036	-211.63	-23.3673	-78.2428	-181.62	-16.7442	-83.9508	-187.315	-7.97936	-54.8565	-192.424	-40.9246	-73.8598	-164.096	-30.7461	-74.7498	-164.159	-14.135	-36.6094	-187.133	-55.651	-57.9329	-159.499	-44.9661	-57.7713	-167.858	-26.2707	-30.3733	-192.616	-71.8943	-42.8534	-181.558	-73.4012	-63.1948	-165.933	-75.3477	-79.293	-226.015	-53.2671	-10.3356	-229.346	-47.3801	19.5402	-236.824	-20.7852	-9.25401	
70	0.583333	-208.807	11.0842	-5.69863	-194.814	5.78461	-34.4248	-181.143	-12.0883	-58.6817	-172.761	-39.2246	-59.9192	-207.57	-24.7688	-77.5409	-178.899	-21.7244	-88.5269	-180.875	-13.4098	-52.3108	-192.328	-40.6136	-71.2746	-160.279	-37.2742	-70.573	-160.969	-19.871	-34.8869	-188.23	-59.882	-56.3988	-157.672	-47.9687	-52.4932	-169.295	-33.2336	-23.6474	-195.297	-75.9527	-42.9231	-183.141	-82.2492	-58.8539	-164.815	-79.3552	-79.7547	-226.553	-53.5467	-12.9495	-231.194	-41.3457	16.3148	-233.424	-17.384	-9.10845	
71	0.591667	-200.466	9.15659	-8.06162	-182.75	9.44644	-31.983	-171.824	-7.08545	-57.3174	-162.134	-33.0007	-65.9926	-199.992	-29.1167	-74.7614	-169.898	-28.2476	-83.9734	-168.745	-18.8481	-51.6149	-188.977	-45.0203	-70.0004	-156.019	-41.1568	-66.5318	-163.76	-27.7065	-27.4147	-184.795	-60.2549	-57.1577	-157.538	-58.5442	-51.9903	-165.958	-40.0167	-19.8207	-197.702	-75.7307	-38.0454	-183.843	-82.1917	-59.5876	-166.013	-85.4037	-78.6329	-226.018	-50.7005	-15.2486	-231.897	-41.3535	14.4839	-228.605	-12.1163	-12.6493	
72	0.6	-190.515	10.8039	-0.926892	-177.234	7.0536	-29.8025	-168.276	-3.42357	-58.8193	-166.212	-32.7959	-65.2002	-189.119	-26.3618	-74.038	-158.641	-33.2794	-81.9141	-146.404	-24.7638	-52.1071	-182.337	-48.4797	-69.2569	-151.829	-50.4065	-59.22	-161.718	-35.8361	-26.1053	-184.049	-62.7308	-55.4735	-153.995	-62.3501	-47.3807	-161.103	-43.3651	-18.6223	-198.741	-71.3258	-40.5417	-185.913	-83.4512	-58.8529	-167.016	-92.3814	-75.3358	-226.689	-46.2295	-13.4825	-231.334	-34.5523	15.8978	-221.661	-9.97747	-9.39696	
73	0.608333	-181.611	8.34838	3.48596	-170.546	2.46211	-27.1985	-161.716	-10.1163	-56.3638	-159.143	-34.4467	-64.4627	-179.911	-21.9304	-70.2875	-148.142	-33.2414	-77.876	-138.648	-33.9534	-44.1711	-179.152	-44.016	-67.0737	-150.48	-54.7794	-60.1192	-161.126	-39.304	-22.0951	-185.001	-59.1493	-54.4938	-154.129	-65.6422	-44.5443	-160.242	-49.501	-15.3031	-200.002	-70.3714	-44.4774	-187.081	-84.754	-59.5454	-163.095	-89.322	-71.9096	-222.129	-36.9825	-17.2504	-229.038	-33.8986	12.0167	-213.481	-6.0162	-10.148	
74	0.616667	-173.285	4.73985	6.65397	-157.012	2.77197	-23.0406	-151.814	-13.2636	-51.7221	-152.973	-37.121	-61.4009	-170.556	-22.7422	-66.6027	-142.922	-39.8128	-71.8597	-131.807	-37.6842	-39.5965	-173.038	-44.6204	-66.041	-147.692	-58.4105	-55.1853	-153.499	-41.8245	-20.1197	-183.162	-56.1229	-52.21	-154.76	-72.2708	-40.0334	-157.239	-57.306	-14.1836	-201.799	-68.25	-41.9603	-188.536	-78.756	-56.8371	-163.454	-89.7373	-64.7917	-219.2	-33.9326	-11.8861	-225.072	-21.6771	13.9065	-204.248	0.000174047	-6.75129	
75	0.625	-163.427	6.72344	9.06848	-148.992	-1.22303	-18.0845	-141.537	-13.2462	-44.5921	-146.617	-39.865	-54.9129	-163.984	-24.7307	-62.8907	-135.516	-44.5907	-63.752	-126.271	-40.9965	-33.0221	-168.171	-43.1932	-61.7801	-143.771	-61.7967	-50.6344	-153.311	-44.1038	-14.0886	-178.685	-59.6326	-48.5575	-152.093	-71.8007	-37.9001	-158.212	-55.0991	-5.66019	-197.717	-62.9841	-38.0524	-185.769	-80.091	-54.4631	-158.894	-89.9412	-57.9291	-211.67	-26.4728	-16.3013	-219.778	-16.6635	16.8434	-198.946	2.40184	-2.06424	
76	0.633333	-156.877	7.32614	10.2504	-140.253	0.374321	-13.494	-136.47	-16.7971	-39.2699	-139.988	-41.2723	-51.0315	-151.779	-19.4627	-58.6066	-124.533	-42.1301	-59.791	-122.261	-44.8403	-27.4071	-159.131	-44.1525	-59.037	-137.689	-63.4068	-44.8451	-145.201	-45.7713	-10.5705	-170.853	-55.107	-46.0035	-149.271	-74.3153	-28.8442	-154.563	-57.7453	-2.23652	-193.276	-63.5036	-38.9006	-179.144	-79.0798	-51.3595	-150.776	-93.6952	-50.8712	-207.135	-23.6043	-11.1028	-217.935	-17.4326	13.0932	-191.906	3.61426	-5.18416	
77	0.641667	-155.142	7.10913	17.4213	-136.957	0.582759	-8.53537	-126.31	-14.9469	-33.8368	-132.436	-39.016	-43.1868	-145.099	-21.8161	-53.7294	-117.25	-43.3824	-52.3241	-117.141	-43.7213	-17.6944	-151.115	-41.0769	-53.763	-129.094	-59.9821	-40.5705	-142.33	-46.2526	-5.89191	-162.802	-56.7228	-40.485	-143.946	-72.0488	-20.7109	-151.681	-52.0095	4.95662	-184.271	-60.5169	-37.0999	-166.711	-78.5973	-46.2438	-144.683	-87.9773	-37.1967	-203.995	-21.6803	-12.8377	-212.466	-14.017	16.2233	-186.685	5.37137	-2.66837	
78	0.65	-149.039	13.6328	21.9196	-131.891	3.7105	-5.14964	-121.77	-12.4573	-26.7415	-129.169	-36.9106	-34.0295	-135.314	-21.3499	-48.7102	-109.511	-39.7761	-46.4257	-109.317	-40.1804	-13.1291	-147.736	-41.3594	-46.6073	-121.639	-58.6301	-28.8404	-134.911	-40.1914	1.01355	-157.633	-52.7708	-35.0163	-137.793	-70.4593	-14.6423	-145.026	-51.4997	9.66902	-177.822	-57.9231	-28.6624	-154.423	-77.3971	-36.4407	-135.425	-84.0948	-18.5045	-195.47	-18.1418	-7.42997	-206.797	-10.9695	16.3357	-178.684	9.70149	1.90794	
79	0.658333	-147.92	15.5008	24.2835	-126.909	8.41448	1.558	-112.75	-7.10871	-22.2905	-119.799	-34.1824	-30.2962	-130.526	-17.8199	-42.1318	-103.004	-38.6404	-35.5472	-101.753	-34.8259	-5.67846	-137.879	-39.1524	-41.4747	-113.76	-53.091	-26.1282	-130.926	-38.4422	5.82182	-145.373	-51.898	-31.0876	-130.832	-65.2582	-8.67823	-139.482	-44.8401	14.754	-168.478	-56.6205	-26.1606	-147.505	-75.0023	-28.1453	-131.304	-75.7305	-3.601	-192.087	-17.9865	-5.50206	-204.205	-6.62396	15.301	-177.2	12.9365	2.37322	
80	0.666667	-148.795	19.0855	27.6229	-123.565	15.4744	8.89444	-112.119	-2.57665	-15.1585	-112.763	-27.238	-22.1297	-122.238	-14.3348	-39.6098	-96.2124	-32.219	-29.4905	-97.1806	-25.5332	2.55759	-130.527	-34.8203	-35.9103	-107.532	-49.0645	-16.4756	-124.754	-30.749	11.6958	-140.373	-45.0583	-24.5763	-121.001	-56.929	-5.09976	-135.671	-35.1747	18.9855	-159.354	-58.4392	-22.3193	-136.456	-67.0459	-17.9149	-126.628	-67.0633	10.6531	-188.164	-18.5191	-9.31068	-200.506	-4.5447	18.2757	-175.728	15.8153	5.58177	
81	0.675	-148.135	28.6729	30.1742	-123.402	21.0039	10.4589	-106.702	6.32705	-10.7911	-103.626	-19.1002	-17.827	-117.533	-5.36677	-33.2295	-90.4669	-21.8079	-26.4666	-93.9659	-19.6496	8.17019	-120.235	-26.3695	-30.6908	-96.8058	-36.47	-9.88615	-122.307	-24.8433	18.3834	-132.882	-42.2016	-18.5205	-114.202	-51.8573	2.85483	-131.865	-27.1756	24.5868	-146.28	-51.44	-16.5225	-123.985	-61.6069	-9.06649	-120.211	-58.0546	22.4527	-183.87	-18.1281	-4.90692	-200.017	-9.71736	18.2373	-174.527	16.2758	5.80991	
82	0.683333	-151.656	33.4837	30.3923	-126.889	28.8959	16.6942	-104.093	15.3638	-5.45819	-97.7434	-7.18332	-14.1256	-111.93	2.50208	-29.7616	-83.1127	-8.33346	-18.8459	-89.6324	-8.12324	14.1107	-116.403	-19.4102	-24.2449	-91.9939	-25.919	1.58047	-120.941	-13.5729	23.8927	-123.04	-35.819	-13.1045	-107.15	-41.9398	11.4751	-126.155	-19.3172	29.4598	-142.257	-46.8963	-9.45728	-115.072	-56.8503	-3.99195	-109.837	-50.4915	24.2739	-175.984	-14.5512	-5.85564	-197.284	-6.33679	17.4656	-177.329	18.1847	6.47689	
